<svg version="1.2" xmlns="http://www.w3.org/2000/svg" viewBox="0 0 200 200" width="512" height="512">
  <defs>
    <linearGradient id="g-main" x2="1" gradientUnits="userSpaceOnUse" gradientTransform="matrix(110.795,110.795,-110.795,110.795,44.603,44.603)">
      <stop offset="0" stop-color="#B8A4E0"/>
      <stop offset="0.5" stop-color="#5B3F9A"/>
      <stop offset="1" stop-color="#3D2770"/>
    </linearGradient>
    <linearGradient id="g-accent" x1="0" y1="0" x2="0" y2="1">
      <stop offset="0" stop-color="#E2D5B0"/>
      <stop offset="1" stop-color="#B8A4E0"/>
    </linearGradient>
  </defs>
  <!-- Chip border -->
  <path fill="none" stroke="url(#g-main)" stroke-width="8"
    d="m59.38 44.6h81.24c8.16 0 14.78 6.62 14.78 14.78v81.24c0 8.16-6.62 14.78-14.78 14.78h-81.24c-8.16 0-14.78-6.62-14.78-14.78v-81.24c0-8.16 6.62-14.78 14.78-14.78z"/>
  <!-- Left pins -->
  <path fill="none" stroke="url(#g-main)" stroke-linecap="round" stroke-width="6" d="m7.67 72.3h36.93"/>
  <path fill="none" stroke="url(#g-main)" stroke-linecap="round" stroke-width="6" d="m7.67 100h36.93"/>
  <path fill="none" stroke="url(#g-main)" stroke-linecap="round" stroke-width="6" d="m7.67 127.7h36.93"/>
  <!-- Right pins -->
  <path fill="none" stroke="url(#g-main)" stroke-linecap="round" stroke-width="6" d="m155.4 72.3h36.93"/>
  <path fill="none" stroke="url(#g-main)" stroke-linecap="round" stroke-width="6" d="m155.4 100h36.93"/>
  <path fill="none" stroke="url(#g-main)" stroke-linecap="round" stroke-width="6" d="m155.4 127.7h36.93"/>
  <!-- Top pins -->
  <path fill="none" stroke="url(#g-main)" stroke-linecap="round" stroke-width="6" d="m72.3 7.67v36.93"/>
  <path fill="none" stroke="url(#g-main)" stroke-linecap="round" stroke-width="6" d="m100 7.67v36.93"/>
  <path fill="none" stroke="url(#g-main)" stroke-linecap="round" stroke-width="6" d="m127.7 7.67v36.93"/>
  <!-- Bottom pins -->
  <path fill="none" stroke="url(#g-main)" stroke-linecap="round" stroke-width="6" d="m72.3 155.4v36.93"/>
  <path fill="none" stroke="url(#g-main)" stroke-linecap="round" stroke-width="6" d="m100 155.4v36.93"/>
  <path fill="none" stroke="url(#g-main)" stroke-linecap="round" stroke-width="6" d="m127.7 155.4v36.93"/>
  <!-- Corner nodes -->
  <circle fill="url(#g-main)" cx="72.3" cy="72.3" r="7.39"/>
  <circle fill="url(#g-main)" cx="127.7" cy="72.3" r="7.39"/>
  <circle fill="url(#g-main)" cx="72.3" cy="127.7" r="7.39"/>
  <circle fill="url(#g-main)" cx="127.7" cy="127.7" r="7.39"/>
  <!-- Center node — accent -->
  <circle fill="url(#g-accent)" cx="100" cy="100" r="9.23"/>
  <!-- Connection lines -->
  <path opacity="0.3" fill="none" stroke="#B8A4E0" stroke-width="2" d="m72.3 72.3l27.7 27.7"/>
  <path opacity="0.3" fill="none" stroke="#B8A4E0" stroke-width="2" d="m127.7 72.3l-27.7 27.7"/>
  <path opacity="0.3" fill="none" stroke="#B8A4E0" stroke-width="2" d="m72.3 127.7l27.7-27.7"/>
  <path opacity="0.3" fill="none" stroke="#B8A4E0" stroke-width="2" d="m127.7 127.7l-27.7-27.7"/>
</svg>
