<svg version="1.2" xmlns="http://www.w3.org/2000/svg" viewBox="0 0 200 200" width="512" height="512">
  <defs>
    <linearGradient id="g-shield" x1="0" y1="0" x2="1" y2="1">
      <stop offset="0" stop-color="#84ABFF"/>
      <stop offset="1" stop-color="#0F52E0"/>
    </linearGradient>
    <linearGradient id="g-check" x1="0" y1="0" x2="0" y2="1">
      <stop offset="0" stop-color="#EEF3FF"/>
      <stop offset="1" stop-color="#84ABFF"/>
    </linearGradient>
  </defs>
  <!-- Shield outline -->
  <path fill="none" stroke="url(#g-shield)" stroke-linecap="round" stroke-linejoin="round" stroke-width="8"
    d="m100 4.61l63.74 23.9c7.97 3.19 12.75 11.16 12.75 19.12v68.53c0 15.94-6.37 31.87-19.12 43.03l-44.62 31.87c-6.38 4.78-19.12 4.78-25.5 0l-44.62-31.87c-12.75-11.16-19.12-27.09-19.12-43.03v-68.53c0-7.96 4.78-15.93 12.75-19.12z"/>
  <!-- Checkmark — accent -->
  <path fill="none" stroke="url(#g-check)" stroke-linecap="round" stroke-linejoin="round" stroke-width="10"
    d="m64.94 100.22l22.31 23.91 47.81-63.75"/>
  <!-- Corner accent dots -->
  <circle opacity="0.45" fill="url(#g-shield)" cx="100"    cy="28.51" r="4.78"/>
  <circle opacity="0.45" fill="url(#g-shield)" cx="52.19"  cy="68.35" r="4.78"/>
  <circle opacity="0.45" fill="url(#g-shield)" cx="147.81" cy="68.35" r="4.78"/>
</svg>
